<svg width="411" height="731" viewBox="0 0 411 731" fill="none" xmlns="http://www.w3.org/2000/svg">
<path fill-rule="evenodd" clip-rule="evenodd" d="M416.257 21.309C430.135 59.7457 464.983 89.4242 467.912 130.185C471.089 174.383 462.288 222.774 433.134 256.145C404.183 289.282 357.509 303.172 313.652 306.753C274.79 309.926 242.058 277.676 203.163 274.923C159.468 271.831 111.761 313.449 74.8546 289.854C39.0998 266.996 55.1411 209.204 38.986 169.962C22.4988 129.913 -25.4606 100.247 -20.934 57.1741C-16.4344 14.3569 25.7305 -15.1326 61.028 -39.7831C91.131 -60.8058 128.712 -63.3038 164.333 -72.2093C195.472 -79.9944 225.654 -84.9017 257.501 -88.9032C300.503 -94.3061 349.228 -124.629 384.829 -99.9137C419.714 -75.6958 401.834 -18.6339 416.257 21.309Z" fill="#148EFF" fill-opacity="0.2"/>
<path fill-rule="evenodd" clip-rule="evenodd" d="M89.2436 526.274C136.797 520.454 185.267 474.57 227.965 496.298C274.649 520.054 259.157 601.092 300.207 633.629C341.245 666.157 416.885 632.316 450.367 672.58C480.991 709.406 462.08 767.969 450.584 814.464C440.21 856.418 407.088 887.359 387.708 925.988C368.722 963.834 366.51 1010.32 337.064 1040.74C306.833 1071.98 263.409 1085.93 221.555 1097.68C178.574 1109.74 134.533 1109.6 89.8936 1110.12C35.7825 1110.75 -36.4708 1143.41 -70.1593 1101.06C-108.109 1053.35 -55.4975 981.448 -60.7752 920.716C-63.989 883.734 -80.1224 850.227 -94.9158 816.18C-118.907 760.964 -180.503 716.99 -175.355 657.009C-170.665 602.369 -119.762 557.13 -70.5957 532.837C-22.1813 508.916 35.6419 532.834 89.2436 526.274Z" fill="#148EFF" fill-opacity="0.2"/>
</svg>
