<svg width="411" height="731" viewBox="0 0 411 731" fill="none" xmlns="http://www.w3.org/2000/svg">
<path fill-rule="evenodd" clip-rule="evenodd" d="M406.983 7.21336C421.091 47.0822 456.516 77.8665 459.494 120.146C462.723 165.991 453.777 216.185 424.139 250.799C394.709 285.171 347.261 299.578 302.678 303.293C263.172 306.584 229.897 273.132 190.358 270.277C145.939 267.07 97.4417 310.239 59.9236 285.764C23.5762 262.054 39.8833 202.109 23.4606 161.405C6.70017 119.863 -42.0539 89.0924 -37.4524 44.4148C-32.8782 0.00223765 9.98537 -30.586 45.8678 -56.1549C76.4697 -77.9609 114.674 -80.552 150.885 -89.7893C182.54 -97.8644 213.222 -102.955 245.597 -107.105C289.311 -112.709 338.843 -144.162 375.034 -118.526C410.497 -93.4057 392.321 -34.2178 406.983 7.21336Z" fill="#148EFF" fill-opacity="0.2"/>
<path fill-rule="evenodd" clip-rule="evenodd" d="M89.2436 526.274C136.797 520.454 185.267 474.57 227.965 496.298C274.649 520.054 259.157 601.092 300.207 633.629C341.245 666.157 416.885 632.316 450.367 672.58C480.99 709.406 462.08 767.969 450.584 814.464C440.21 856.418 407.088 887.359 387.708 925.988C368.722 963.834 366.51 1010.32 337.064 1040.74C306.833 1071.98 263.408 1085.93 221.555 1097.68C178.574 1109.74 134.533 1109.6 89.8936 1110.12C35.7825 1110.75 -36.4708 1143.41 -70.1593 1101.06C-108.109 1053.35 -55.4975 981.448 -60.7752 920.716C-63.989 883.734 -80.1224 850.227 -94.9158 816.18C-118.907 760.964 -180.503 716.99 -175.355 657.009C-170.665 602.369 -119.762 557.13 -70.5957 532.837C-22.1813 508.916 35.6419 532.834 89.2436 526.274Z" fill="#148EFF" fill-opacity="0.2"/>
</svg>
