<svg width="16" height="16" viewBox="0 0 16 16" fill="none" xmlns="http://www.w3.org/2000/svg">
<path d="M13.3334 3.33337H11.6094L9.80471 1.52871C9.7429 1.46668 9.66944 1.41749 9.58855 1.38396C9.50766 1.35044 9.42094 1.33325 9.33337 1.33337H6.66671C6.57915 1.33325 6.49242 1.35044 6.41153 1.38396C6.33064 1.41749 6.25718 1.46668 6.19537 1.52871L4.39071 3.33337H2.66671C1.93137 3.33337 1.33337 3.93137 1.33337 4.66671V12C1.33337 12.7354 1.93137 13.3334 2.66671 13.3334H13.3334C14.0687 13.3334 14.6667 12.7354 14.6667 12V4.66671C14.6667 3.93137 14.0687 3.33337 13.3334 3.33337ZM8.00004 11.3334C6.19337 11.3334 4.66671 9.80671 4.66671 8.00004C4.66671 6.19271 6.19337 4.66671 8.00004 4.66671C9.80671 4.66671 11.3334 6.19271 11.3334 8.00004C11.3334 9.80671 9.80671 11.3334 8.00004 11.3334Z" fill="white"/>
<path d="M8.66667 6H7.33333V7.33333H6V8.66667H7.33333V10H8.66667V8.66667H10V7.33333H8.66667V6Z" fill="white"/>
</svg>
