<svg width="16" height="16" viewBox="0 0 16 16" fill="none" xmlns="http://www.w3.org/2000/svg">
<path d="M2.66667 7.33333H6.66667C6.84348 7.33333 7.01305 7.2631 7.13807 7.13807C7.2631 7.01305 7.33333 6.84348 7.33333 6.66667V2.66667C7.33333 2.48986 7.2631 2.32029 7.13807 2.19526C7.01305 2.07024 6.84348 2 6.66667 2H2.66667C2.48986 2 2.32029 2.07024 2.19526 2.19526C2.07024 2.32029 2 2.48986 2 2.66667V6.66667C2 6.84348 2.07024 7.01305 2.19526 7.13807C2.32029 7.2631 2.48986 7.33333 2.66667 7.33333ZM9.33333 7.33333H13.3333C13.5101 7.33333 13.6797 7.2631 13.8047 7.13807C13.9298 7.01305 14 6.84348 14 6.66667V2.66667C14 2.48986 13.9298 2.32029 13.8047 2.19526C13.6797 2.07024 13.5101 2 13.3333 2H9.33333C9.15652 2 8.98695 2.07024 8.86193 2.19526C8.7369 2.32029 8.66667 2.48986 8.66667 2.66667V6.66667C8.66667 6.84348 8.7369 7.01305 8.86193 7.13807C8.98695 7.2631 9.15652 7.33333 9.33333 7.33333ZM2.66667 14H6.66667C6.84348 14 7.01305 13.9298 7.13807 13.8047C7.2631 13.6797 7.33333 13.5101 7.33333 13.3333V9.33333C7.33333 9.15652 7.2631 8.98695 7.13807 8.86193C7.01305 8.7369 6.84348 8.66667 6.66667 8.66667H2.66667C2.48986 8.66667 2.32029 8.7369 2.19526 8.86193C2.07024 8.98695 2 9.15652 2 9.33333V13.3333C2 13.5101 2.07024 13.6797 2.19526 13.8047C2.32029 13.9298 2.48986 14 2.66667 14ZM11.3333 14C12.804 14 14 12.804 14 11.3333C14 9.86267 12.804 8.66667 11.3333 8.66667C9.86267 8.66667 8.66667 9.86267 8.66667 11.3333C8.66667 12.804 9.86267 14 11.3333 14Z" fill="white"/>
</svg>
