<svg width="46" height="46" viewBox="0 0 46 46" fill="none" xmlns="http://www.w3.org/2000/svg">
<path d="M28.75 1.91663H17.25V5.74996H28.75V1.91663ZM21.0833 26.8333H24.9167V15.3333H21.0833V26.8333ZM36.4742 14.1641L39.1958 11.4425C38.3717 10.465 37.4708 9.54496 36.4933 8.73996L33.7717 11.4616C30.719 9.00508 26.9183 7.66603 23 7.66663C13.4742 7.66663 5.75 15.3908 5.75 24.9166C5.75 34.4425 13.455 42.1666 23 42.1666C26.2474 42.1684 29.4293 41.2528 32.1792 39.5254C34.929 37.7979 37.135 35.3289 38.5431 32.4026C39.9511 29.4763 40.504 26.2118 40.138 22.9851C39.7719 19.7584 38.5019 16.7007 36.4742 14.1641V14.1641ZM23 38.3333C15.5825 38.3333 9.58333 32.3341 9.58333 24.9166C9.58333 17.4991 15.5825 11.5 23 11.5C30.4175 11.5 36.4167 17.4991 36.4167 24.9166C36.4167 32.3341 30.4175 38.3333 23 38.3333Z" fill="#148EFF"/>
</svg>
