<svg width="411" height="731" viewBox="0 0 411 731" fill="none" xmlns="http://www.w3.org/2000/svg">
<rect width="411" height="731" fill="#D0E8FF"/>
<path fill-rule="evenodd" clip-rule="evenodd" d="M414.277 7.21335C428.382 47.0822 463.797 77.8665 466.774 120.146C470.002 165.991 461.059 216.185 431.429 250.799C402.008 285.171 354.573 299.578 310.003 303.293C270.507 306.584 237.242 273.132 197.714 270.277C153.308 267.07 104.824 310.239 67.317 285.764C30.98 262.054 47.2824 202.109 30.8643 161.405C14.1087 119.863 -34.6315 89.0924 -30.0313 44.4148C-25.4584 0.00224032 17.393 -30.586 53.2652 -56.1549C83.8584 -77.9609 122.052 -80.552 158.252 -89.7893C189.899 -97.8644 220.572 -102.955 252.938 -107.105C296.639 -112.709 346.157 -144.162 382.338 -118.526C417.791 -93.4057 399.62 -34.2178 414.277 7.21335Z" fill="#094277"/>
<path fill-rule="evenodd" clip-rule="evenodd" d="M89.1669 526.291C136.708 520.474 185.163 474.594 227.851 496.324C274.525 520.082 259.041 601.116 300.082 633.655C341.112 666.185 416.73 632.349 450.206 672.614C480.823 709.44 461.921 768.001 450.43 814.494C440.062 856.446 406.95 887.384 387.577 926.011C368.598 963.855 366.389 1010.34 336.953 1040.76C306.731 1072 263.318 1085.94 221.476 1097.69C178.507 1109.75 134.477 1109.61 89.8495 1110.12C35.7523 1110.75 -36.4805 1143.4 -70.1628 1101.05C-108.106 1053.35 -55.5115 981.445 -60.7912 920.714C-64.0063 883.732 -80.1374 850.226 -94.9289 816.179C-118.917 760.964 -180.5 716.987 -175.356 657.008C-170.671 602.37 -119.784 557.135 -70.631 532.846C-22.2303 508.928 35.5793 532.848 89.1669 526.291Z" fill="#094277"/>
</svg>
